<?xml version="1.0" standalone="no"?>
<!DOCTYPE svg PUBLIC "-//W3C//DTD SVG 20010904//EN"
 "http://www.w3.org/TR/2001/REC-SVG-20010904/DTD/svg10.dtd">
<svg version="1.0" xmlns="http://www.w3.org/2000/svg"
 width="255.000000pt" height="256.000000pt" viewBox="0 0 255.000000 256.000000"
 preserveAspectRatio="xMidYMid meet">

<g transform="translate(0.000000,256.000000) scale(0.100000,-0.100000)"
fill="#000000" stroke="none">
<path d="M560 1913 c0 -119 3 -142 20 -170 24 -40 67 -63 120 -63 l40 0 0 -95
0 -95 100 0 100 0 0 95 0 95 135 0 135 0 0 -95 0 -95 100 0 100 0 0 95 0 95
135 0 135 0 0 -95 0 -95 100 0 100 0 0 95 0 95 43 0 c24 0 56 8 74 20 54 33
63 63 63 215 0 74 -4 135 -8 135 -4 0 -62 -19 -127 -42 l-120 -43 -495 0 -495
0 -120 43 c-65 23 -123 42 -127 42 -4 0 -8 -62 -8 -137z"/>
<path d="M591 1374 c-26 -22 -31 -33 -31 -70 0 -34 6 -51 25 -69 21 -22 33
-25 90 -25 l65 0 0 -284 c0 -181 4 -294 11 -315 21 -60 106 -80 156 -37 l28
24 3 306 3 306 369 0 369 0 3 -306 3 -306 28 -24 c50 -43 135 -23 156 37 7 21
11 134 11 315 l0 284 65 0 c57 0 69 3 90 25 19 18 25 35 25 69 0 37 -5 48 -31
70 l-31 26 -688 0 -688 0 -31 -26z"/>
</g>
</svg>
